<?xml version="1.0" encoding="UTF-8" standalone="no"?>
<svg
   xmlns:dc="http://purl.org/dc/elements/1.1/"
   xmlns:cc="http://creativecommons.org/ns#"
   xmlns:rdf="http://www.w3.org/1999/02/22-rdf-syntax-ns#"
   xmlns:svg="http://www.w3.org/2000/svg"
   xmlns="http://www.w3.org/2000/svg"
   xmlns:sodipodi="http://sodipodi.sourceforge.net/DTD/sodipodi-0.dtd"
   xmlns:inkscape="http://www.inkscape.org/namespaces/inkscape"
   version="1.1"
   x="0px"
   y="0px"
   viewBox="0 0 48 48"
   enable-background="new 0 0 48 48"
   xml:space="preserve"
   width="528"
   height="528"
   id="svg16"
   sodipodi:docname="org.gnome.Eolie.svg"
   inkscape:version="0.92.1 r"><metadata
     id="metadata22"><rdf:RDF><cc:Work
         rdf:about=""><dc:format>image/svg+xml</dc:format><dc:type
           rdf:resource="http://purl.org/dc/dcmitype/StillImage" /></cc:Work></rdf:RDF></metadata><defs
     id="defs20"><filter
       style="color-interpolation-filters:sRGB;"
       inkscape:label="Lightness-Contrast"
       id="filter7109"><feGaussianBlur
         in="SourceGraphic"
         stdDeviation="10"
         result="blur"
         id="feGaussianBlur7099" /><feDiffuseLighting
         diffuseConstant="1"
         surfaceScale="10"
         lighting-color="rgb(255,255,255)"
         result="diffuse"
         id="feDiffuseLighting7103"><feDistantLight
           elevation="41"
           azimuth="235"
           id="feDistantLight7101" /></feDiffuseLighting><feComposite
         in="diffuse"
         in2="diffuse"
         operator="arithmetic"
         k1="1"
         result="composite1"
         id="feComposite7105" /><feComposite
         in="composite1"
         in2="SourceGraphic"
         k1="1"
         operator="arithmetic"
         k3="1"
         result="fbSourceGraphic"
         id="feComposite7107" /><feColorMatrix
         result="fbSourceGraphicAlpha"
         in="fbSourceGraphic"
         values="0 0 0 -1 0 0 0 0 -1 0 0 0 0 -1 0 0 0 0 1 0"
         id="feColorMatrix7159" /><feColorMatrix
         id="feColorMatrix7161"
         values="1 0 0 -0.1807 -0 0 1 0 -0.1807 -0 0 0 1 -0.1807 -0 0 0 0 1 0"
         in="fbSourceGraphic" /></filter></defs><sodipodi:namedview
     pagecolor="#ffffff"
     bordercolor="#666666"
     borderopacity="1"
     objecttolerance="10"
     gridtolerance="10"
     guidetolerance="10"
     inkscape:pageopacity="0"
     inkscape:pageshadow="2"
     inkscape:window-width="1920"
     inkscape:window-height="1016"
     id="namedview18"
     showgrid="false"
     inkscape:zoom="0.63211061"
     inkscape:cx="261.67421"
     inkscape:cy="201.56088"
     inkscape:window-x="0"
     inkscape:window-y="27"
     inkscape:window-maximized="1"
     inkscape:current-layer="svg16" /><circle
     cx="24.136364"
     cy="23.863636"
     id="circle2"
     style="fill:#ff5555;fill-opacity:1;stroke:#ffffff;stroke-width:0.27272728;stroke-miterlimit:4;stroke-dasharray:none;stroke-opacity:1;filter:url(#filter7109)"
     r="23.545454" /><polygon
     id="XMLID_1080_"
     style="fill:#9dd7f5"
     points="180,180 222.353,222.354 360,180 222.353,137.646 "
     transform="matrix(0.12373737,0,0,0.12373737,1.8181818,1.636365)" /><g
     id="XMLID_1081_"
     transform="matrix(0.12373737,0,0,0.12373737,1.8181818,1.636365)"><polygon
       id="XMLID_84_"
       style="fill:#78b9eb"
       points="180,180 222.353,137.648 360,180 " /></g><polygon
     id="XMLID_1082_"
     style="fill:#9dd7f5"
     points="0,180 137.647,222.352 180,180 137.647,137.648 "
     transform="matrix(0.12373737,0,0,0.12373737,1.8181818,1.636365)" /><g
     id="XMLID_1083_"
     transform="matrix(0.12373737,0,0,0.12373737,1.8181818,1.636365)"><polygon
       id="XMLID_81_"
       style="fill:#78b9eb"
       points="180,180 137.647,222.354 0,180 " /></g><polygon
     id="XMLID_1084_"
     style="fill:#9dd7f5"
     points="137.647,137.648 180,180 222.353,137.648 180,0 "
     transform="matrix(0.12373737,0,0,0.12373737,1.8181818,1.636365)" /><g
     id="XMLID_1085_"
     transform="matrix(0.12373737,0,0,0.12373737,1.8181818,1.636365)"><polygon
       id="XMLID_1086_"
       style="fill:#78b9eb"
       points="180,180 137.647,137.648 180,0 " /></g><polygon
     id="XMLID_1087_"
     style="fill:#9dd7f5"
     points="137.647,222.354 180,360 222.353,222.354 180,180 "
     transform="matrix(0.12373737,0,0,0.12373737,1.8181818,1.636365)" /><g
     id="XMLID_1088_"
     transform="matrix(0.12373737,0,0,0.12373737,1.8181818,1.636365)"><polygon
       id="XMLID_75_"
       style="fill:#78b9eb"
       points="180,180 222.353,222.354 180,360 " /></g><g
     id="XMLID_1089_"
     transform="matrix(0.12373737,0,0,0.12373737,1.8181818,1.636365)"
     style="fill:#78b9eb;fill-opacity:1"><polygon
       id="XMLID_1090_"
       style="fill:#78b9eb;fill-opacity:1"
       points="128.236,180 180,180 180,128.236 70,70 " /></g><g
     id="XMLID_1091_"
     transform="matrix(0.12373737,0,0,0.12373737,1.8181818,1.636365)"
     style="fill:#78b9eb;fill-opacity:1"><polygon
       id="XMLID_1092_"
       style="fill:#78b9eb;fill-opacity:1"
       points="128.236,180 70,290 180,231.765 180,180 " /></g><g
     id="XMLID_1093_"
     transform="matrix(0.12373737,0,0,0.12373737,1.8181818,1.636365)"
     style="fill:#78b9eb;fill-opacity:1"><polygon
       id="XMLID_1094_"
       style="fill:#78b9eb;fill-opacity:1"
       points="180,180 180,231.765 290,290 231.765,180 " /></g><g
     id="XMLID_1095_"
     transform="matrix(0.12373737,0,0,0.12373737,1.8181818,1.636365)"
     style="fill:#78b9eb;fill-opacity:1"><polygon
       id="XMLID_1096_"
       style="fill:#78b9eb;fill-opacity:1"
       points="180,180 231.765,180 290,70 180,128.236 " /></g><ellipse
     id="XMLID_1097_"
     style="fill:#78b9eb;fill-opacity:1;stroke-width:0.12373751"
     cx="24.090908"
     cy="23.909077"
     rx="11.136362"
     ry="11.136365" /><g
     id="XMLID_1098_"
     style="fill:#78b9eb;fill-opacity:1"
     transform="matrix(0.12373737,0,0,0.12373737,1.8181818,1.636365)"><path
       inkscape:connector-curvature="0"
       id="XMLID_1099_"
       style="fill:#78b9eb;fill-opacity:1"
       d="m 180,270 c 49.706,0 90,-40.295 90,-90 0,-49.705 -40.294,-90 -90,-90" /></g><g
     id="XMLID_1100_"
     transform="matrix(0.12373737,0,0,0.12373737,1.8181818,1.636365)"
     style="fill:#ffffff;fill-opacity:1"><circle
       id="XMLID_1101_"
       style="fill:#ffffff;fill-opacity:1"
       cx="180"
       cy="180"
       r="60" /></g><ellipse
     id="XMLID_1102_"
     style="fill:#003778;fill-opacity:1;stroke-width:0.12373751"
     cx="24.090908"
     cy="23.909077"
     rx="4.9494948"
     ry="4.9494953" /><g
     id="XMLID_1103_"
     transform="matrix(0.12373737,0,0,0.12373737,1.8181818,1.636365)"><path
       inkscape:connector-curvature="0"
       id="XMLID_1104_"
       style="fill:#003778"
       d="m 180,220 c 22.091,0 40,-17.908 40,-40 0,-22.091 -17.909,-40 -40,-40" /></g></svg>